<mxfile host="app.diagrams.net" agent="Mozilla/5.0 (X11; Linux x86_64) AppleWebKit/537.36 (KHTML, like Gecko) Chrome/135.0.0.0 Safari/537.36" version="26.2.14">
  <diagram name="第 1 页" id="TIpnJk7Re6gYNvGnjdlM">
    <mxGraphModel dx="542" dy="737" grid="1" gridSize="10" guides="1" tooltips="1" connect="1" arrows="1" fold="1" page="1" pageScale="1" pageWidth="827" pageHeight="1169" math="0" shadow="0">
      <root>
        <mxCell id="0" />
        <mxCell id="1" parent="0" />
        <mxCell id="beuBBAWBRSFJ7DsWF2Vv-1" value="" style="ellipse;whiteSpace=wrap;html=1;aspect=fixed;fillColor=none;fontSize=16;" vertex="1" parent="1">
          <mxGeometry x="80" y="240" width="200" height="200" as="geometry" />
        </mxCell>
        <mxCell id="beuBBAWBRSFJ7DsWF2Vv-4" style="rounded=0;orthogonalLoop=1;jettySize=auto;html=1;entryX=0;entryY=0;entryDx=0;entryDy=0;fontSize=16;" edge="1" parent="1" source="beuBBAWBRSFJ7DsWF2Vv-2" target="beuBBAWBRSFJ7DsWF2Vv-3">
          <mxGeometry relative="1" as="geometry" />
        </mxCell>
        <mxCell id="beuBBAWBRSFJ7DsWF2Vv-2" value="" style="shape=ellipse;fillColor=#0065FF;strokeColor=none;html=1;sketch=0;fontSize=16;" vertex="1" parent="1">
          <mxGeometry x="175" y="335" width="10" height="10" as="geometry" />
        </mxCell>
        <mxCell id="beuBBAWBRSFJ7DsWF2Vv-3" value="" style="shape=ellipse;fillColor=#0065FF;strokeColor=none;html=1;sketch=0;fontSize=16;" vertex="1" parent="1">
          <mxGeometry x="390" y="560" width="10" height="10" as="geometry" />
        </mxCell>
        <mxCell id="beuBBAWBRSFJ7DsWF2Vv-6" value="目标的方向" style="text;html=1;align=center;verticalAlign=middle;whiteSpace=wrap;rounded=0;fontSize=16;" vertex="1" parent="1">
          <mxGeometry x="290" y="460" width="150" height="30" as="geometry" />
        </mxCell>
        <mxCell id="beuBBAWBRSFJ7DsWF2Vv-7" value="" style="endArrow=classic;html=1;rounded=0;entryX=0.545;entryY=0.001;entryDx=0;entryDy=0;entryPerimeter=0;fontSize=16;" edge="1" parent="1" target="beuBBAWBRSFJ7DsWF2Vv-1">
          <mxGeometry width="50" height="50" relative="1" as="geometry">
            <mxPoint x="180" y="335" as="sourcePoint" />
            <mxPoint x="200" y="125" as="targetPoint" />
          </mxGeometry>
        </mxCell>
        <mxCell id="beuBBAWBRSFJ7DsWF2Vv-8" value="巡飞弹的速度朝向及大小" style="text;html=1;align=center;verticalAlign=middle;whiteSpace=wrap;rounded=0;fontSize=16;" vertex="1" parent="1">
          <mxGeometry x="70" y="210" width="105" height="30" as="geometry" />
        </mxCell>
      </root>
    </mxGraphModel>
  </diagram>
</mxfile>
